<?xml version="1.0" encoding="UTF-8"?>
<svg id="_레이어_1" data-name=" 레이어 1" xmlns="http://www.w3.org/2000/svg" viewBox="0 0 117.71 128.57">
  <defs>
    <style>
      .cls-1 {
        fill: #21bf48;
      }
    </style>
  </defs>
  <path class="cls-1" d="M117.7,48.29l-.29,9.93-5.56.95c8.99,9.89,6.83,27.02-2.46,36.03-5.28,5.13-8.83,8.52-14.03,13.97-25.54,26.77-48.98,25.26-74.02-1-2.11-2.22-3.21-5.36-5.45-7.55s-5.61-3.4-8.08-5.92c-8.97-9.2-10.72-25.81-1.96-35.53l-5.56-.95-.29-9.93c6.17-1.02,6.87-11.07,9.66-16.83,21.01-43.29,75.42-40.81,97.72.67,2.95,5.49,4.37,15.09,10.33,16.15h0ZM53.85,11.15l-10.9,2.1c-1.6,6.29,4.21,25.76-6.56,23.91-6.59-1.13-3.67-11.57-5.04-16-7.55,6.97-14.13,16.68-15.5,27h86c-1.94-10.14-8.29-19.72-15.5-27-1.36,4.07,1.33,14.11-4.19,15.81-11.69,3.59-5.58-16.63-7.76-22.85-.62-.94-9.66-4.13-10.54-1.46v17c-3.05,3.3-7.01,3.25-10,0V11.16h-.01ZM94.85,59.15H22.85l-1.4,6.1c-3.92,3.14-12.7-3.21-11.51,11.27.87,10.56,5.36,10.41,11.86,15.19,3.47,2.56,6.72,7.34,11.59,7.52,8.07.31,6.41-12.19,19.92-10.03,2.13.34,3.73,2.11,5.98,1.95,1.62-.11,2.96-1.58,4.3-1.78,14.89-2.17,12.47,9.4,19.77,9.87,5.45.35,8.77-4.74,12.57-7.54,1.95-1.44,4.55-1.95,6.46-3.54,4.6-3.86,7.45-14.93,3.93-19.96-2.73-3.91-7.19-.67-10.05-2.95l-1.4-6.1h-.02ZM69.85,99.15h-22c2.62,11.63,19.39,11.62,22,0Z"/>
  <path class="cls-1" d="M39.14,65.46c7.87-6.46,14.13,9.31,6.47,12.95-7.24,3.44-11.83-8.55-6.47-12.95Z"/>
  <path class="cls-1" d="M73.59,64.3c7.76-1.51,10.21,12.75,1.72,14.87-7.85.8-9.07-13.44-1.72-14.87Z"/>
</svg>