<?xml version="1.0" encoding="UTF-8"?>
<svg id="_레이어_1" data-name="레이어_1" xmlns="http://www.w3.org/2000/svg" version="1.1" viewBox="0 0 18 18">
  <!-- Generator: Adobe Illustrator 29.2.1, SVG Export Plug-In . SVG Version: 2.1.0 Build 116)  -->
  <defs>
    <style>
      .st0 {
        fill: #21bf48;
      }

      .st1, .st2 {
        fill: #fff;
      }

      .st3 {
        fill: none;
      }

      .st2 {
        stroke: #fff;
        stroke-linecap: round;
        stroke-linejoin: round;
        stroke-width: .2px;
      }
    </style>
  </defs>
  <rect class="st0" x="1" y="0" width="16" height="16" rx="4.6" ry="4.6"/>
  <g>
    <rect class="st1" x="2.5" y="6.3" width="1.2" height="3.6" rx=".6" ry=".6"/>
    <rect class="st1" x="3" y="7.5" width="2.1" height="1.2"/>
    <path class="st1" d="M5.7,7h0c0-.4-.3-.7-.6-.7s-.6.3-.6.6v2.4c0,.3.3.6.6.6s.6-.3.6-.6h0c-.2-.4-.4-.8-.4-1.2s.2-.8.4-1.1Z"/>
    <path class="st1" d="M7.4,6.2c-1,0-1.9.8-1.9,1.9s.8,1.9,1.9,1.9,1.9-.8,1.9-1.9-.8-1.9-1.9-1.9ZM7.4,8.9c-.4,0-.8-.3-.8-.8s.3-.8.8-.8.8.3.8.8-.3.8-.8.8Z"/>
    <path class="st3" d="M10.9,7.3h-.6s0,1.5,0,1.5h.8c.2,0,.3-.6.3-.9,0-.3,0-.4-.2-.5-.1-.1-.4-.1-.4-.1Z"/>
    <path class="st1" d="M12,6.7c-.4-.4-1-.4-1.1-.4h-1.1c-.3,0-.5.2-.5.5s0,0,0,0c0,0,0,0,0,0v.2c.2.3.4.7.4,1.1s-.1.8-.3,1.1v.2c0,.3.2.5.5.5h1.3c1.1,0,1.4-1.2,1.4-1.9,0-.7-.3-1.1-.5-1.3ZM11.1,8.9h-.8v-1.5s.6,0,.6,0c0,0,.2,0,.4.1.1.1.2.3.2.5,0,.3-.1.9-.3.9Z"/>
    <path class="st3" d="M11.2,7.3h-.6s0,1.5,0,1.5h.8c.2,0,.3-.6.3-.9,0-.3,0-.4-.2-.5-.1-.1-.4-.1-.4-.1Z"/>
    <path class="st1" d="M15,6.3c-.3,0-.5.2-.5.5v1.5c0,.2,0,.3-.1.4-.1.1-.4.1-.5.1h0c-.2,0-.3,0-.3-.1-.1-.1-.1-.3-.1-.4v-1.6c0-.3-.2-.5-.5-.5s-.5.2-.5.5c.2.2.4.6.4,1.2,0,.3,0,.7-.2,1.1,0,.1.1.2.2.3.2.2.5.4,1.1.4,0,0,.1,0,.2,0,.3,0,.7,0,1-.3.2-.2.5-.5.5-1.2v-1.5c0-.3-.2-.5-.5-.5Z"/>
    <polygon class="st2" points="6.4 6 6.3 6.6 6.9 6.4 6.4 6 6.3 6.6 6.9 6.4 6.4 6"/>
    <polygon class="st2" points="8.4 6 8.5 6.6 7.9 6.4 8.4 6 8.5 6.6 7.9 6.4 8.4 6"/>
  </g>
</svg>