<?xml version="1.0" encoding="UTF-8"?>
<svg id="_레이어_1" xmlns="http://www.w3.org/2000/svg" version="1.1" viewBox="0 0 18 18">
  <!-- Generator: Adobe Illustrator 29.2.1, SVG Export Plug-In . SVG Version: 2.1.0 Build 116)  -->
  <defs>
    <style>
      .st0 {
        fill: #21bf48;
      }

      .st1, .st2 {
        fill: #fff;
      }

      .st3 {
        fill: none;
      }

      .st2 {
        stroke: #fff;
        stroke-linecap: round;
        stroke-linejoin: round;
        stroke-width: .2px;
      }
    </style>
  </defs>
  <rect class="st0" x=".7" y=".7" width="16.6" height="16.6" rx="4.6" ry="4.6"/>
  <g>
    <path class="st1" d="M2.9,7.2h0c.3,0,.6.3.6.6v2.5c0,.3-.3.6-.6.6h0c-.3,0-.6-.3-.6-.6v-2.5c0-.3.3-.6.6-.6Z"/>
    <rect class="st1" x="2.8" y="8.5" width="2.2" height="1.2"/>
    <path class="st1" d="M5.6,8h0c0-.4-.3-.7-.6-.7s-.6.3-.6.6v2.5c0,.3.3.6.6.6s.6-.3.6-.6h0c-.2-.4-.4-.8-.4-1.2s.2-.8.4-1.1Z"/>
    <path class="st1" d="M7.3,7.1c-1,0-2,.8-2,2s.8,2,2,2,2-.8,2-2-.8-2-2-2ZM7.3,9.9c-.4,0-.8-.3-.8-.8s.3-.8.8-.8.8.3.8.8-.3.8-.8.8Z"/>
    <path class="st3" d="M11,8.3h-.6v1.6h.8c.2,0,.3-.6.3-.9s0-.4-.2-.5c-.1-.1-.4-.1-.4-.1h.1Z"/>
    <path class="st1" d="M12.1,7.7c-.4-.4-1-.4-1.1-.4h-1.1c-.3,0-.5.2-.5.5s0,0,0,0h0v.2c.2.3.4.7.4,1.1s-.1.8-.3,1.1v.2c0,.3.2.5.5.5h1.4c1.1,0,1.5-1.2,1.5-2s-.3-1.1-.5-1.4h-.1ZM11.2,9.9h-.8v-1.6h.6s.2,0,.4.1c.1.1.2.3.2.5,0,.3-.1.9-.3.9h-.1Z"/>
    <path class="st3" d="M11.3,8.3h-.6v1.6h.8c.2,0,.3-.6.3-.9s0-.4-.2-.5c-.1-.1-.4-.1-.4-.1h.1Z"/>
    <path class="st1" d="M15.2,7.2c-.3,0-.5.2-.5.5v1.6c0,.2,0,.3-.1.4-.1.1-.4.1-.5.1h0c-.2,0-.3,0-.3-.1-.1-.1-.1-.3-.1-.4v-1.7c0-.3-.2-.5-.5-.5s-.5.2-.5.5c.2.2.4.6.4,1.2s0,.7-.2,1.1c0,.1.1.2.2.3.2.2.5.4,1.1.4h.2c.3,0,.7,0,1-.3s.5-.5.5-1.2v-1.6c0-.3-.2-.5-.5-.5h-.2Z"/>
    <polygon class="st2" points="6.3 6.9 6.2 7.6 6.8 7.3 6.3 6.9 6.2 7.6 6.8 7.3 6.3 6.9"/>
    <polygon class="st2" points="8.4 6.9 8.5 7.6 7.9 7.3 8.4 6.9 8.5 7.6 7.9 7.3 8.4 6.9"/>
  </g>
</svg>